<?xml version="1.0" encoding="utf-8"?>
<!-- Generator: Adobe Illustrator 19.2.0, SVG Export Plug-In . SVG Version: 6.00 Build 0)  -->
<svg version="1.1" id="Layer_1" xmlns="http://www.w3.org/2000/svg" xmlns:xlink="http://www.w3.org/1999/xlink" x="0px" y="0px"
	 viewBox="0 0 1190.6 841.9" style="enable-background:new 0 0 1190.6 841.9;" xml:space="preserve">
<style type="text/css">
	.st0{clip-path:url(#SVGID_2_);fill:#006875;}
	.st1{clip-path:url(#SVGID_4_);fill:#F7EE80;}
	.st2{clip-path:url(#SVGID_6_);fill:#006875;}
	.st3{clip-path:url(#SVGID_8_);fill:#F7EE80;}
	.st4{clip-path:url(#SVGID_10_);fill:#006875;}
	.st5{clip-path:url(#SVGID_12_);fill:#F7EE80;}
	.st6{clip-path:url(#SVGID_12_);fill:#006875;}
	.st7{fill:#006875;}
	.st8{clip-path:url(#SVGID_14_);fill:#006875;}
	.st9{fill:#F7EE80;}
	.st10{clip-path:url(#SVGID_16_);fill:#F7EE80;}
	.st11{clip-path:url(#SVGID_16_);fill:#006875;}
</style>
<g id="New_Symbol">
</g>
<g id="New_Symbol_2">
</g>
<g id="New_Symbol_1">
</g>
<g id="New_Symbol_3">
</g>
<g id="New_Symbol_4">
</g>
<g>
	<defs>
		<path id="SVGID_7_" d="M340.6,386.2c0-5.3,2.9-8.1,8.2-8.1h30.9c17.9,0,29.7,13.5,29.7,31.9c0,18.5-11.8,32.3-29.7,32.3h-12.9v17
			c0,5.2-2.7,8.1-8.1,8.1h-9.9c-5.3,0-8.2-2.9-8.2-8.1V386.2z M374.1,420c6.2,0,8.7-4.5,8.7-9.9s-2.5-9.6-8.2-9.6h-7.8V420H374.1z
			 M413.1,386.2c0-5.3,2.9-8.1,8.2-8.1h24.2c8.2,0,13.8,0.5,17.8,1.9c10.1,3.4,17.5,13.7,17.5,26.8c0,9.1-3.7,19.6-12.4,25v0.2
			c0,0,2,2.2,4,5.7l11.2,19.9c3.5,6.2,0.4,9.8-5.6,9.8h-11.5c-3.8,0-7.3-1.5-9.6-5.7l-11.3-21.9h-6.2v19.5c0,5.2-2.7,8.1-8.1,8.1
			h-9.9c-5.3,0-8.2-2.9-8.2-8.1V386.2z M444.9,417.5c6.2,0,9.3-2.7,9.3-9.4c0-2.4-0.4-5.1-4-6.6c-2-0.9-4.1-1-7-1h-4v17H444.9z
			 M530.7,376.7c28.3,0,47.2,20,47.2,45.6c0,26.2-18.9,46.7-47.2,46.7s-47.1-20.5-47.1-46.7C483.6,396.6,502.3,376.7,530.7,376.7z
			 M530.7,445.1c11.9,0,20.1-9.8,20.1-22.8c0-12.4-8.2-21.7-20.1-21.7c-11.8,0-20,9.3-20,21.7C510.7,435.3,518.9,445.1,530.7,445.1z
			 M580.2,449l4.7-6.8c3-4.3,6.3-4.6,11.2-2c2.9,1.1,7.8,5.1,14.8,5.1c5.1,0,6.6-1.9,6.6-4c0-9.4-37.7-7.6-37.7-36.1
			c0-17.1,14.2-28.6,33.2-28.6c10.3,0,20.2,3.4,24.8,6.5c4.3,3.1,4.7,6.8,2.6,11.2l-3.6,7.1c-3,5.8-7,4.8-11.1,2.9
			c-4.5-2-7.8-4-13.2-4c-5,0-6.7,1.7-6.7,4.1c0,10.2,37.9,7,37.9,35.6c0,15.4-11.7,28.9-32.8,28.9c-12.3,0-24-4.7-29.1-8.7
			C578.7,457.9,576.3,454.6,580.2,449z M647.7,386.2c0-5.3,2.9-8.1,8.2-8.1h30.9c17.9,0,29.7,13.5,29.7,31.9
			c0,18.5-11.8,32.3-29.7,32.3h-12.9v17c0,5.2-2.7,8.1-8.1,8.1h-9.9c-5.3,0-8.2-2.9-8.2-8.1V386.2z M681.3,420
			c6.2,0,8.7-4.5,8.7-9.9s-2.5-9.6-8.2-9.6h-7.8V420H681.3z M720.7,386.2c0-5.3,2.9-8.1,8.2-8.1h41.6c5.2,0,8.1,2.7,8.1,8.1v6.2
			c0,5.2-2.9,8.1-8.1,8.1h-23.6v10.8h16.9c5.3,0,8.2,2.9,8.2,8.1v6.2c0,5.3-2.9,8.1-8.2,8.1h-16.9v11.4H772c5.3,0,8.2,2.9,8.2,8.1
			v6.2c0,5.2-2.9,8.1-8.2,8.1h-43.1c-5.3,0-8.2-2.9-8.2-8.1V386.2z M783.8,386.2c0-5.3,2.9-8.1,8.2-8.1h24.2
			c8.2,0,13.8,0.5,17.8,1.9c10.1,3.4,17.5,13.7,17.5,26.8c0,9.1-3.7,19.6-12.4,25v0.2c0,0,2,2.2,4,5.7l11.2,19.9
			c3.5,6.2,0.4,9.8-5.6,9.8h-11.5c-3.8,0-7.3-1.5-9.6-5.7l-11.3-21.9H810v19.5c0,5.2-2.7,8.1-8.1,8.1H792c-5.3,0-8.2-2.9-8.2-8.1
			V386.2z M815.6,417.5c6.2,0,9.3-2.7,9.3-9.4c0-2.4-0.4-5.1-4-6.6c-2-0.9-4.1-1-7-1h-4v17H815.6z"/>
	</defs>
	<clipPath id="SVGID_2_">
		<use xlink:href="#SVGID_7_"  style="overflow:visible;"/>
	</clipPath>
	<path style="clip-path:url(#SVGID_2_);fill:#F7EE80;" d="M533.2,367.3c-80-1.3-156.2,7.1-232.1,10.1c-1.2,3.9-2.5,7.7-3.8,11.5
		c-8.6,27.7-17.5,53.6-26.7,77.7c10.6-23.9,20.9-49.7,30.7-77.7c-8.5,28-17.4,54-26.5,78.4c10.5-24.1,20.8-50.1,30.6-78.4
		c-8.4,28.3-17.3,54.5-26.3,79c10.5-24.3,20.7-50.5,30.4-79.1c-8.4,28.5-17.1,55-26.1,79.7c10.4-24.5,20.5-51,30.2-79.8
		c-8.3,28.8-17,55.5-25.9,80.5c10.3-24.7,20.4-51.4,30-80.5c-8.2,29.1-16.9,56-25.7,81.2c10.3-25,20.3-51.9,29.8-81.3
		c-8.2,29.4-16.8,56.6-25.5,82c10.2-25.2,20.2-52.3,29.6-82.1c-8.1,29.7-16.6,57.1-25.4,82.8c10.2-25.4,20.1-52.8,29.5-82.9
		c-8,30.1-16.5,57.7-25.2,83.6c10.1-25.7,20-53.3,29.3-83.7c-7.9,30.4-16.4,58.3-25,84.4c10-25.9,19.8-53.8,29.1-84.5
		c-7.9,30.7-16.2,58.9-24.8,85.3c10-26.2,19.7-54.3,28.9-85.4c-7.8,31.1-16.1,59.5-24.6,86.2c9.9-26.4,19.6-54.8,28.7-86.3
		c-7.7,31.4-16,60.1-24.4,87.1c9.9-26.7,19.5-55.4,28.5-87.2c-7.6,31.8-15.8,60.7-24.2,88c9.8-27,19.4-55.9,28.3-88.1
		c-7.6,32.1-15.7,61.4-24,88.9c9.8-27.3,19.3-56.5,28.2-89c-7.5,32.5-15.5,62-23.8,89.9c9.7-27.6,19.2-57.1,28-90
		c-7.4,32.9-15.4,62.7-23.7,90.9c9.7-27.9,19.1-57.7,27.8-91c-7.3,33.3-15.3,63.4-23.5,91.9c9.6-28.2,19-58.3,27.6-92
		c-7.3,33.7-15.1,64.1-23.3,92.9c9.6-28.5,18.9-58.9,27.4-93c-7.2,34.1-15,64.8-23.1,93.9c9.5-28.9,18.8-59.6,27.2-94
		c-7.1,34.5-14.9,65.5-22.9,95c9.5-29.2,18.7-60.2,27-95.1c-7,34.9-14.7,66.2-22.7,96.1c9.4-29.6,18.5-60.9,26.9-96.2
		c-6.9,35.3-14.6,66.9-22.5,97.2c9.4-29.9,18.4-61.6,26.7-97.3c-6.8,35.7-14.4,67.7-22.3,98.3c9.4-30.3,18.4-62.3,26.5-98.4
		c-6.8,36.1-14.3,68.4-22.2,99.4c9.3-30.7,18.3-63,26.3-99.5c-6.7,36.5-14.2,69.2-22,100.6c9.3-31,18.2-63.7,26.1-100.7
		c-6.6,37-14,70-21.8,101.8c9.2-31.4,18.1-64.4,26-101.8c-6.5,37.4-13.9,70.8-21.6,103c9.2-31.8,18-65.2,25.8-103
		c-6.4,37.8-13.7,71.6-21.4,104.2c9.2-32.2,17.9-65.9,25.6-104.2c-6.3,38.3-13.6,72.4-21.3,105.4c9.1-32.7,17.8-66.7,25.4-105.5
		c-6.2,38.7-13.4,73.2-21.1,106.7c9.1-33.1,17.7-67.5,25.3-106.7c-6.2,39.2-13.3,74-20.9,107.9c9.1-33.5,17.6-68.3,25.1-108
		c-6.1,39.6-13.2,74.8-20.7,109.2c9-34,17.6-69.1,24.9-109.2c-6,40.1-13,75.7-20.6,110.5c9-34.4,17.5-70,24.8-110.5
		c-5.9,40.6-12.9,76.5-20.4,111.8c9-34.9,17.4-70.8,24.6-111.9c-5.8,41-12.7,77.4-20.2,113.2c9-35.3,17.3-71.7,24.4-113.2
		c-5.7,41.5-12.6,78.3-20.1,114.6c8.9-35.8,17.3-72.6,24.3-114.5c-5.6,42-12.5,79.2-19.9,115.9c8.9-36.3,17.2-73.5,24.1-115.9
		c-5.5,42.5-12.3,80.1-19.8,117.3c8.9-36.8,17.1-74.4,24-117.3c-5.4,42.9-12.2,81-19.6,118.8c8.9-37.3,17.1-75.3,23.8-118.7
		c-5.4,43.4-12.1,81.9-19.5,120.2c8.9-37.8,17-76.3,23.7-120.1C462,430.3,455.4,469.2,448,508c8.9-38.3,17-77.2,23.5-121.6
		c-5.2,44.4-11.8,83.8-19.2,123.1c8.8-38.9,16.9-78.2,23.4-123c-5.1,44.9-11.6,84.7-19,124.6c8.8-39.4,16.9-79.2,23.3-124.5
		c-5,45.4-11.5,85.7-18.9,126.1c8.8-39.9,16.8-80.2,23.1-126c-4.9,45.9-11.4,86.6-18.8,127.7c8.8-40.5,16.8-81.2,23-127.6
		c-4.8,46.4-11.3,87.6-18.6,129.2c8.8-41.1,16.7-82.2,22.9-129.1c-4.7,46.9-11.1,88.6-18.5,130.8c8.8-41.6,16.7-83.3,22.8-130.6
		c-4.6,47.4-11,89.6-18.4,132.4c8.8-42.2,16.7-84.3,22.7-132.2c-4.5,48-10.9,90.6-18.3,134c8.8-42.8,16.7-85.4,22.5-133.8
		c-4.5,48.5-10.8,91.6-18.2,135.6c8.9-43.4,16.6-86.5,22.4-135.4c-4.4,49-10.6,92.7-18,137.3c8.9-44,16.6-87.6,22.3-137.1
		c-4.3,49.5-10.5,93.7-17.9,138.9c8.9-44.6,16.6-88.7,22.2-138.7c-4.2,50.1-10.4,94.8-17.8,140.6c8.9-45.2,16.6-89.9,22.1-140.4
		c-4.1,50.6-10.3,95.8-17.8,142.3c8.9-45.8,16.6-91,22.1-142.1c-4,51.1-10.2,96.9-17.7,144c9-46.5,16.6-92.2,22-143.8
		c-3.9,51.7-10.1,98-17.6,145.8c9-47.1,16.6-93.3,21.9-145.5c-3.8,52.2-10,99.1-17.5,147.5c9-47.8,16.6-94.5,21.8-147.2
		c-3.8,52.8-9.9,100.2-17.4,149.3c9-48.4,16.7-95.7,21.8-149C540.7,443,534.6,491,527,540.8c9.1-49.1,16.7-97,21.7-150.7
		c-3.6,53.9-9.7,102.4-17.3,152.9c9.1-49.7,16.7-98.2,21.7-152.5c-3.5,54.5-9.6,103.6-17.3,154.7c9.2-50.4,16.8-99.4,21.6-154.3
		c-3.4,55-9.5,104.7-17.2,156.6c9.2-51.1,16.8-100.7,21.6-156.2c-3.3,55.6-9.4,105.9-17.2,158.4c9.3-51.8,16.8-102,21.6-158
		c-3.3,56.2-9.3,107.1-17.2,160.3c9.3-52.5,16.9-103.3,21.5-159.9c-3.2,56.8-9.2,108.3-17.1,162.2c9.4-53.2,17-104.5,21.5-161.8
		c-3.1,57.4-9.1,109.5-17.1,164.1c9.5-53.9,17-105.9,21.5-163.7c-3,58-9,110.7-17.1,166.1c9.5-54.6,17.1-107.2,21.5-165.6
		c-2.9,58.6-9,111.9-17.1,168c9.6-55.3,17.2-108.5,21.5-167.5c-2.9,59.2-8.9,113.2-17.1,170c9.7-56,17.3-109.9,21.5-169.4
		c-2.8,59.8-8.8,114.4-17.1,172c9.8-56.7,17.4-111.2,21.6-171.4c-2.7,60.4-8.8,115.7-17.2,173.9c9.8-57.4,17.5-112.6,21.6-173.4
		c-2.6,61-8.7,116.9-17.2,176c9.9-58.2,17.6-114,21.6-175.4c-2.6,61.6-8.7,118.2-17.2,178c10-58.9,17.7-115.4,21.7-177.4
		c-2.5,62.2-8.6,119.5-17.3,180c10.1-59.6,17.8-116.8,21.7-179.4c-2.4,62.9-8.6,120.8-17.3,182.1c10.2-60.3,18-118.2,21.8-181.4
		c-2.4,63.5-8.5,122.2-17.4,184.2c10.3-61.1,18.1-119.6,21.9-183.5c-2.3,64.1-8.5,123.5-17.5,186.2c10.4-61.8,18.2-121,22-185.5
		c-2.2,64.8-8.5,124.8-17.6,188.3c10.6-62.6,18.4-122.4,22.1-187.6c-2.2,65.4-8.5,126.2-17.7,190.5c10.7-63.3,18.6-123.9,22.2-189.7
		c-2.1,66.1-8.4,127.6-17.8,192.6c10.8-64,18.7-125.3,22.3-191.8c-2.1,66.7-8.4,128.9-17.9,194.7c10.9-64.8,18.9-126.8,22.4-193.9
		c-2,67.4-8.4,130.3-18.1,196.9c11.1-65.5,19.1-128.2,22.6-196c-1.9,68.1-8.4,131.7-18.2,199c11.2-66.3,19.3-129.7,22.7-198.2
		c-1.9,68.7-8.4,133.2-18.3,201.2c11.4-67,19.5-131.2,22.9-200.3c-1.8,69.4-8.4,134.6-18.5,203.4c11.5-67.8,19.8-132.7,23.1-202.5
		c-1.8,70.1-8.5,136-18.7,205.6c11.7-68.5,20-134.1,23.3-204.6c-1.7,70.8-8.5,137.5-18.9,207.8c11.9-69.2,20.2-135.6,23.5-206.8
		c-1.7,71.5-8.5,138.9-19.1,210c12-70,20.5-137.1,23.7-209c-1.7,72.2-8.6,140.4-19.3,212.2c12.2-70.7,20.7-138.6,23.9-211.2
		c-1.6,72.9-8.6,141.9-19.5,214.4c12.4-71.4,21-140.1,24.1-213.4c-1.6,73.6-8.6,143.4-19.8,216.6c12.6-72.1,21.3-141.6,24.4-215.6
		c-1.6,74.3-8.7,144.9-20,218.9c12.8-72.8,21.6-143,24.6-217.8c-1.5,75.1-8.8,146.4-20.3,221.1c13-73.6,21.9-144.5,24.9-220
		c-1.5,75.8-8.8,147.9-20.6,223.3c13.2-74.3,22.2-146,25.2-222.2c-1.5,76.5-8.9,149.5-20.9,225.6c13.4-74.9,22.5-147.5,25.5-224.4
		c-1.5,77.3-9,151-21.2,227.8c13.6-75.6,22.9-149,25.8-226.6c-1.4,78-9.1,152.6-21.5,230c13.8-76.3,23.2-150.4,26.2-228.8
		c-1.4,78.8-9.2,154.1-21.9,232.3c14.1-77,23.6-151.9,26.5-231c-1.4,79.5-9.3,155.7-22.2,234.5c14.3-77.6,23.9-153.4,26.9-233.2
		c-1.4,80.3-9.4,157.3-22.6,236.8c14.6-78.3,24.3-154.8,27.3-235.4c-1.4,81.1-9.6,158.9-23,239c14.8-78.9,24.7-156.3,27.7-237.6
		c-1.4,81.8-9.7,160.4-23.4,241.2c15.1-79.6,25.1-157.7,28.1-239.8c-1.4,82.6-9.9,162-23.8,243.4c15.4-80.2,25.5-159.1,28.5-242
		c-1.4,83.4-10,163.7-24.2,245.7c15.6-80.8,26-160.5,29-244.2c-1.4,84.2-10.2,165.3-24.7,247.9c15.9-81.4,26.4-161.9,29.4-246.4
		c-1.4,85-10.4,166.9-25.2,250.1c16.2-81.9,26.9-163.3,29.9-248.6c-1.4,85.8-10.5,168.5-25.7,252.3c16.5-82.5,27.4-164.7,30.4-250.7
		c-1.5,86.6-10.7,170.1-26.2,254.4c16.8-83,27.8-166,30.9-252.9c-1.5,87.4-10.9,171.8-26.7,256.6c17.1-83.6,28.3-167.3,31.4-255
		c-1.5,88.2-11.2,173.4-27.2,258.7c16.9-81.1,28-162.7,31.6-247.8l0.1,1.6c-2.1,85.1-11.8,167.6-27.5,249.9
		c14.9-70.9,25.5-142.3,30.4-216.2l0.3,3.4l90,27l-9-135h-54h-36h-93.7L533.2,367.3z"/>
</g>
</svg>
